GSerif01-TextRegular04.ufo
<glyph name="A" format="1">
  <advance width="674"/>
  <unicode hex="0041"/>
  <outline>
    <contour>
      <point x="61" y="0" type="line"/>
      <point x="116" y="0" type="line"/>
      <point x="345" y="710" type="line"/>
      <point x="289" y="710" type="line"/>
    </contour>
    <contour>
      <point x="525" y="0" type="line"/>
      <point x="615" y="0" type="line"/>
      <point x="384" y="710" type="line"/>
      <point x="312" y="710" type="line"/>
      <point x="310" y="670" type="line"/>
    </contour>
    <contour>
      <point x="190" y="295" type="line"/>
      <point x="182" y="248" type="line"/>
      <point x="460" y="248" type="line"/>
      <point x="458" y="295" type="line"/>
    </contour>
    <contour>
      <point x="13" y="0" type="line"/>
      <point x="234" y="0" type="line"/>
      <point x="234" y="41" type="line"/>
      <point x="216" y="41" type="line" smooth="yes"/>
      <point x="173" y="41"/>
      <point x="136" y="49"/>
      <point x="136" y="60" type="curve"/>
      <point x="90" y="90" type="line"/>
      <point x="76" y="51"/>
      <point x="54" y="41"/>
      <point x="18" y="41" type="curve"/>
      <point x="13" y="41" type="line"/>
    </contour>
    <contour>
      <point x="661" y="0" type="line"/>
      <point x="661" y="41" type="line"/>
      <point x="656" y="41" type="line"/>
      <point x="622" y="41"/>
      <point x="600" y="44"/>
      <point x="590" y="76" type="curve"/>
      <point x="508" y="52" type="line"/>
      <point x="508" y="44"/>
      <point x="462" y="41"/>
      <point x="425" y="41" type="curve" smooth="yes"/>
      <point x="408" y="41" type="line"/>
      <point x="408" y="0" type="line"/>
    </contour>
  </outline>
</glyph>
<glyph name="D" format="1">
  <advance width="783"/>
  <unicode hex="0044"/>
  <outline>
    <contour>
      <point x="146" y="0" type="line"/>
      <point x="238" y="0" type="line"/>
      <point x="238" y="710" type="line"/>
      <point x="146" y="710" type="line"/>
    </contour>
    <contour>
      <point x="202" y="659" type="line"/>
      <point x="356" y="659" type="line" smooth="yes"/>
      <point x="527" y="659"/>
      <point x="633" y="550"/>
      <point x="633" y="357" type="curve" smooth="yes"/>
      <point x="633" y="164"/>
      <point x="527" y="51"/>
      <point x="356" y="51" type="curve" smooth="yes"/>
      <point x="218" y="51" type="line"/>
      <point x="146" y="77" type="line"/>
      <point x="146" y="48"/>
      <point x="110" y="41"/>
      <point x="62" y="41" type="curve" smooth="yes"/>
      <point x="52" y="41" type="line"/>
      <point x="52" y="0" type="line"/>
      <point x="356" y="0" type="line" smooth="yes"/>
      <point x="579" y="0"/>
      <point x="731" y="141"/>
      <point x="731" y="357" type="curve" smooth="yes"/>
      <point x="731" y="574"/>
      <point x="579" y="710"/>
      <point x="356" y="710" type="curve" smooth="yes"/>
      <point x="52" y="710" type="line"/>
      <point x="52" y="669" type="line"/>
      <point x="62" y="669" type="line" smooth="yes"/>
      <point x="110" y="669"/>
      <point x="146" y="660"/>
      <point x="146" y="633" type="curve"/>
    </contour>
  </outline>
</glyph>
<glyph name="H" format="1">
  <advance width="802"/>
  <unicode hex="0048"/>
  <outline>
    <contour>
      <point x="145" y="0" type="line"/>
      <point x="238" y="0" type="line"/>
      <point x="238" y="710" type="line"/>
      <point x="145" y="710" type="line"/>
    </contour>
    <contour>
      <point x="51" y="0" type="line"/>
      <point x="331" y="0" type="line"/>
      <point x="331" y="41" type="line"/>
      <point x="322" y="41" type="line" smooth="yes"/>
      <point x="285" y="41"/>
      <point x="238" y="44"/>
      <point x="238" y="51" type="curve"/>
      <point x="145" y="77" type="line"/>
      <point x="145" y="48"/>
      <point x="108" y="41"/>
      <point x="61" y="41" type="curve" smooth="yes"/>
      <point x="51" y="41" type="line"/>
    </contour>
    <contour>
      <point x="51" y="710" type="line"/>
      <point x="51" y="669" type="line"/>
      <point x="61" y="669" type="line" smooth="yes"/>
      <point x="108" y="669"/>
      <point x="145" y="662"/>
      <point x="145" y="633" type="curve"/>
      <point x="238" y="659" type="line"/>
      <point x="238" y="666"/>
      <point x="285" y="669"/>
      <point x="322" y="669" type="curve" smooth="yes"/>
      <point x="331" y="669" type="line"/>
      <point x="331" y="710" type="line"/>
    </contour>
    <contour>
      <point x="565" y="0" type="line"/>
      <point x="658" y="0" type="line"/>
      <point x="658" y="710" type="line"/>
      <point x="565" y="710" type="line"/>
    </contour>
    <contour>
      <point x="471" y="0" type="line"/>
      <point x="751" y="0" type="line"/>
      <point x="751" y="41" type="line"/>
      <point x="742" y="41" type="line" smooth="yes"/>
      <point x="694" y="41"/>
      <point x="658" y="48"/>
      <point x="658" y="77" type="curve"/>
      <point x="565" y="51" type="line"/>
      <point x="565" y="44"/>
      <point x="517" y="41"/>
      <point x="480" y="41" type="curve" smooth="yes"/>
      <point x="471" y="41" type="line"/>
    </contour>
    <contour>
      <point x="471" y="710" type="line"/>
      <point x="471" y="669" type="line"/>
      <point x="480" y="669" type="line" smooth="yes"/>
      <point x="517" y="669"/>
      <point x="565" y="666"/>
      <point x="565" y="659" type="curve"/>
      <point x="658" y="633" type="line"/>
      <point x="658" y="662"/>
      <point x="694" y="669"/>
      <point x="742" y="669" type="curve" smooth="yes"/>
      <point x="751" y="669" type="line"/>
      <point x="751" y="710" type="line"/>
    </contour>
    <contour>
      <point x="206" y="392" type="line"/>
      <point x="206" y="340" type="line"/>
      <point x="597" y="340" type="line"/>
      <point x="597" y="392" type="line"/>
    </contour>
  </outline>
</glyph>
<glyph name="M" format="1">
  <advance width="952"/>
  <unicode hex="004D"/>
  <outline>
    <contour>
      <point x="806" y="0" type="line"/>
      <point x="806" y="633" type="line"/>
      <point x="806" y="662"/>
      <point x="842" y="669"/>
      <point x="890" y="669" type="curve"/>
      <point x="900" y="669" type="line"/>
      <point x="900" y="710" type="line"/>
      <point x="674" y="710" type="line"/>
      <point x="455" y="47" type="line"/>
      <point x="491" y="64" type="line"/>
      <point x="283" y="710" type="line"/>
      <point x="51" y="710" type="line"/>
      <point x="51" y="669" type="line"/>
      <point x="62" y="669" type="line"/>
      <point x="108" y="669"/>
      <point x="145" y="662"/>
      <point x="145" y="633" type="curve"/>
      <point x="145" y="0" type="line"/>
      <point x="204" y="0" type="line"/>
      <point x="204" y="699" type="line"/>
      <point x="198" y="680" type="line"/>
      <point x="431" y="-2" type="line"/>
      <point x="490" y="-2" type="line"/>
      <point x="724" y="682" type="line"/>
      <point x="717" y="699" type="line"/>
      <point x="717" y="0" type="line"/>
    </contour>
    <contour>
      <point x="900" y="0" type="line"/>
      <point x="900" y="41" type="line"/>
      <point x="890" y="41" type="line"/>
      <point x="842" y="41"/>
      <point x="806" y="48"/>
      <point x="806" y="77" type="curve"/>
      <point x="723" y="51" type="line"/>
      <point x="702" y="44"/>
      <point x="675" y="41"/>
      <point x="642" y="41" type="curve"/>
      <point x="631" y="41" type="line"/>
      <point x="631" y="0" type="line"/>
    </contour>
    <contour>
      <point x="51" y="0" type="line"/>
      <point x="290" y="0" type="line"/>
      <point x="290" y="41" type="line"/>
      <point x="284" y="41" type="line"/>
      <point x="248" y="44"/>
      <point x="204" y="45"/>
      <point x="204" y="57" type="curve"/>
      <point x="145" y="84" type="line"/>
      <point x="145" y="51"/>
      <point x="108" y="41"/>
      <point x="62" y="41" type="curve"/>
      <point x="51" y="41" type="line"/>
    </contour>
  </outline>
</glyph>
<glyph name="P" format="1">
  <advance width="652"/>
  <unicode hex="0050"/>
  <outline>
    <contour>
      <point x="147" y="0" type="line"/>
      <point x="240" y="0" type="line"/>
      <point x="240" y="710" type="line"/>
      <point x="147" y="710" type="line"/>
    </contour>
    <contour>
      <point x="54" y="0" type="line"/>
      <point x="344" y="0" type="line"/>
      <point x="344" y="41" type="line"/>
      <point x="328" y="41" type="line"/>
      <point x="286" y="41"/>
      <point x="240" y="44"/>
      <point x="240" y="78" type="curve"/>
      <point x="147" y="77" type="line"/>
      <point x="147" y="48"/>
      <point x="111" y="41"/>
      <point x="63" y="41" type="curve" smooth="yes"/>
      <point x="54" y="41" type="line"/>
    </contour>
    <contour>
      <point x="54" y="710" type="line"/>
      <point x="54" y="669" type="line"/>
      <point x="63" y="669" type="line" smooth="yes"/>
      <point x="110" y="669"/>
      <point x="147" y="662"/>
      <point x="147" y="633" type="curve"/>
      <point x="225" y="659" type="line"/>
      <point x="346" y="659" type="line" smooth="yes"/>
      <point x="456" y="659"/>
      <point x="512" y="602"/>
      <point x="512" y="502" type="curve"/>
      <point x="512" y="404"/>
      <point x="456" y="340"/>
      <point x="341" y="340" type="curve" smooth="yes"/>
      <point x="196" y="340" type="line"/>
      <point x="196" y="290" type="line"/>
      <point x="342" y="290" type="line" smooth="yes"/>
      <point x="506" y="290"/>
      <point x="608" y="376"/>
      <point x="608" y="504" type="curve"/>
      <point x="608" y="630"/>
      <point x="511" y="710"/>
      <point x="347" y="710" type="curve" smooth="yes"/>
    </contour>
  </outline>
</glyph>
<glyph name="Q" format="1">
  <advance width="802"/>
  <unicode hex="0051"/>
  <outline>
    <contour>
      <point x="401" y="-10" type="curve" smooth="yes"/>
      <point x="597" y="-10"/>
      <point x="751" y="139"/>
      <point x="751" y="355" type="curve" smooth="yes"/>
      <point x="751" y="572"/>
      <point x="597" y="720"/>
      <point x="401" y="720" type="curve" smooth="yes"/>
      <point x="205" y="720"/>
      <point x="52" y="572"/>
      <point x="52" y="355" type="curve" smooth="yes"/>
      <point x="52" y="139"/>
      <point x="205" y="-10"/>
    </contour>
    <contour>
      <point x="401" y="44" type="curve" smooth="yes"/>
      <point x="255" y="44"/>
      <point x="150" y="164"/>
      <point x="150" y="355" type="curve" smooth="yes"/>
      <point x="150" y="546"/>
      <point x="255" y="666"/>
      <point x="401" y="666" type="curve" smooth="yes"/>
      <point x="547" y="666"/>
      <point x="652" y="546"/>
      <point x="652" y="355" type="curve" smooth="yes"/>
      <point x="652" y="164"/>
      <point x="547" y="44"/>
    </contour>
    <contour>
      <point x="376" y="17" type="line"/>
      <point x="406" y="-122"/>
      <point x="500" y="-184"/>
      <point x="700" y="-182" type="curve"/>
      <point x="700" y="-96" type="line"/>
      <point x="542" y="-97"/>
      <point x="458" y="-89"/>
      <point x="432" y="35" type="curve"/>
    </contour>
  </outline>
</glyph>
<glyph name="U" format="1">
  <advance width="806"/>
  <unicode hex="0055"/>
  <outline>
    <contour>
      <point x="233" y="264" type="curve" smooth="yes"/>
      <point x="233" y="710" type="line"/>
      <point x="140" y="710" type="line"/>
      <point x="140" y="263" type="line" smooth="yes"/>
      <point x="140" y="71"/>
      <point x="252" y="-10"/>
      <point x="408" y="-10" type="curve" smooth="yes"/>
      <point x="553" y="-10"/>
      <point x="666" y="70"/>
      <point x="666" y="265" type="curve" smooth="yes"/>
      <point x="666" y="710" type="line"/>
      <point x="608" y="710" type="line"/>
      <point x="608" y="265" type="line" smooth="yes"/>
      <point x="608" y="109"/>
      <point x="531" y="54"/>
      <point x="422" y="54" type="curve" smooth="yes"/>
      <point x="310" y="54"/>
      <point x="233" y="108"/>
    </contour>
    <contour>
      <point x="46" y="710" type="line"/>
      <point x="46" y="669" type="line"/>
      <point x="56" y="669" type="line" smooth="yes"/>
      <point x="103" y="669"/>
      <point x="140" y="662"/>
      <point x="140" y="633" type="curve"/>
      <point x="233" y="659" type="line"/>
      <point x="233" y="666"/>
      <point x="280" y="669"/>
      <point x="317" y="669" type="curve" smooth="yes"/>
      <point x="326" y="669" type="line"/>
      <point x="326" y="710" type="line"/>
    </contour>
    <contour>
      <point x="760" y="710" type="line"/>
      <point x="510" y="710" type="line"/>
      <point x="510" y="669" type="line"/>
      <point x="523" y="669" type="line" smooth="yes"/>
      <point x="565" y="669"/>
      <point x="608" y="661"/>
      <point x="608" y="646" type="curve"/>
      <point x="666" y="619" type="line"/>
      <point x="666" y="656"/>
      <point x="702" y="669"/>
      <point x="749" y="669" type="curve" smooth="yes"/>
      <point x="760" y="669" type="line"/>
    </contour>
  </outline>
</glyph>
<glyph name="e" format="1">
  <advance width="578"/>
  <unicode hex="0065"/>
  <outline>
    <contour>
      <point x="320" y="-12" type="curve" smooth="yes"/>
      <point x="424" y="-12"/>
      <point x="492" y="38"/>
      <point x="530" y="104" type="curve"/>
      <point x="486" y="137" type="line"/>
      <point x="456" y="90"/>
      <point x="409" y="40"/>
      <point x="323" y="40" type="curve" smooth="yes"/>
      <point x="221" y="40"/>
      <point x="143" y="120"/>
      <point x="143" y="264" type="curve" smooth="yes"/>
      <point x="143" y="409"/>
      <point x="214" y="498"/>
      <point x="301" y="498" type="curve"/>
      <point x="392" y="498"/>
      <point x="436" y="428"/>
      <point x="438" y="286" type="curve"/>
      <point x="466" y="306" type="line"/>
      <point x="113" y="306" type="line"/>
      <point x="114" y="255" type="line"/>
      <point x="534" y="255" type="line"/>
      <point x="532" y="450"/>
      <point x="450" y="550"/>
      <point x="301" y="550" type="curve"/>
      <point x="162" y="550"/>
      <point x="52" y="435"/>
      <point x="52" y="266" type="curve" smooth="yes"/>
      <point x="52" y="96"/>
      <point x="170" y="-12"/>
    </contour>
  </outline>
</glyph>
<glyph name="i" format="1">
  <advance width="334"/>
  <unicode hex="0069"/>
  <outline>
    <contour>
      <point x="171" y="649" type="curve" smooth="yes"/>
      <point x="206" y="649"/>
      <point x="232" y="672"/>
      <point x="232" y="710" type="curve" smooth="yes"/>
      <point x="232" y="747"/>
      <point x="206" y="770"/>
      <point x="171" y="770" type="curve" smooth="yes"/>
      <point x="136" y="770"/>
      <point x="110" y="747"/>
      <point x="110" y="710" type="curve" smooth="yes"/>
      <point x="110" y="672"/>
      <point x="136" y="649"/>
    </contour>
    <contour>
      <point x="130" y="0" type="line"/>
      <point x="220" y="0" type="line"/>
      <point x="220" y="540" type="line"/>
      <point x="44" y="540" type="line"/>
      <point x="44" y="497" type="line"/>
      <point x="55" y="495" type="line" smooth="yes"/>
      <point x="106" y="486"/>
      <point x="130" y="479"/>
      <point x="130" y="450" type="curve" smooth="yes"/>
    </contour>
    <contour>
      <point x="45" y="0" type="line"/>
      <point x="305" y="0" type="line"/>
      <point x="305" y="40" type="line"/>
      <point x="304" y="40" type="line"/>
      <point x="255" y="40"/>
      <point x="220" y="47"/>
      <point x="220" y="76" type="curve"/>
      <point x="130" y="76" type="line"/>
      <point x="130" y="47"/>
      <point x="95" y="40"/>
      <point x="46" y="40" type="curve"/>
      <point x="45" y="40" type="line"/>
    </contour>
  </outline>
</glyph>
<glyph name="l" format="1">
  <advance width="334"/>
  <unicode hex="006C"/>
  <outline>
    <contour>
      <point x="130" y="0" type="line"/>
      <point x="220" y="0" type="line"/>
      <point x="220" y="750" type="line"/>
      <point x="44" y="750" type="line"/>
      <point x="44" y="707" type="line"/>
      <point x="55" y="705" type="line" smooth="yes"/>
      <point x="107" y="696"/>
      <point x="130" y="689"/>
      <point x="130" y="660" type="curve" smooth="yes"/>
    </contour>
    <contour>
      <point x="45" y="0" type="line"/>
      <point x="305" y="0" type="line"/>
      <point x="305" y="40" type="line"/>
      <point x="304" y="40" type="line"/>
      <point x="255" y="40"/>
      <point x="220" y="47"/>
      <point x="220" y="76" type="curve"/>
      <point x="130" y="76" type="line"/>
      <point x="130" y="47"/>
      <point x="95" y="40"/>
      <point x="46" y="40" type="curve"/>
      <point x="45" y="40" type="line"/>
    </contour>
  </outline>
</glyph>
<glyph name="r" format="1">
  <advance width="421"/>
  <unicode hex="0072"/>
  <outline>
    <contour>
      <point x="398" y="548" type="line"/>
      <point x="391" y="550"/>
      <point x="380" y="550"/>
      <point x="368" y="550" type="curve" smooth="yes"/>
      <point x="290" y="550"/>
      <point x="232" y="488"/>
      <point x="197" y="390" type="curve"/>
      <point x="208" y="346" type="line"/>
      <point x="244" y="434"/>
      <point x="279" y="469"/>
      <point x="340" y="469" type="curve" smooth="yes"/>
      <point x="359" y="469"/>
      <point x="380" y="466"/>
      <point x="398" y="460" type="curve"/>
    </contour>
    <contour>
      <point x="45" y="0" type="line"/>
      <point x="316" y="0" type="line"/>
      <point x="316" y="40" type="line"/>
      <point x="300" y="40" type="line" smooth="yes"/>
      <point x="272" y="40"/>
      <point x="220" y="43"/>
      <point x="220" y="72" type="curve"/>
      <point x="130" y="76" type="line"/>
      <point x="130" y="47"/>
      <point x="94" y="40"/>
      <point x="46" y="40" type="curve"/>
      <point x="45" y="40" type="line"/>
    </contour>
    <contour>
      <point x="45" y="540" type="line"/>
      <point x="45" y="497" type="line"/>
      <point x="55" y="495" type="line" smooth="yes"/>
      <point x="106" y="486"/>
      <point x="130" y="479"/>
      <point x="130" y="450" type="curve" smooth="yes"/>
      <point x="130" y="0" type="line"/>
      <point x="220" y="0" type="line"/>
      <point x="220" y="401" type="line"/>
      <point x="211" y="393" type="line"/>
      <point x="211" y="540" type="line"/>
    </contour>
  </outline>
</glyph>
<glyph name="s" format="1">
  <advance width="504"/>
  <unicode hex="0073"/>
  <outline>
    <contour>
      <point x="380" y="136" type="curve"/>
      <point x="380" y="75"/>
      <point x="333" y="40"/>
      <point x="255" y="40" type="curve" smooth="yes"/>
      <point x="186" y="40"/>
      <point x="133" y="58"/>
      <point x="106" y="113" type="curve"/>
      <point x="89" y="72"/>
      <point x="92" y="54"/>
      <point x="128" y="40" type="curve"/>
      <point x="128" y="161" type="line"/>
      <point x="42" y="161" type="line"/>
      <point x="42" y="72" type="line"/>
      <point x="81" y="20"/>
      <point x="160" y="-11"/>
      <point x="257" y="-11" type="curve" smooth="yes"/>
      <point x="385" y="-11"/>
      <point x="462" y="58"/>
      <point x="462" y="149" type="curve" smooth="yes"/>
      <point x="462" y="352"/>
      <point x="143" y="266"/>
      <point x="143" y="409" type="curve" smooth="yes"/>
      <point x="143" y="460"/>
      <point x="180" y="499"/>
      <point x="252" y="499" type="curve" smooth="yes"/>
      <point x="307" y="499"/>
      <point x="354" y="480"/>
      <point x="375" y="434" type="curve"/>
      <point x="383" y="470"/>
      <point x="374" y="495"/>
      <point x="347" y="492" type="curve"/>
      <point x="347" y="397" type="line"/>
      <point x="432" y="397" type="line"/>
      <point x="432" y="478" type="line"/>
      <point x="406" y="520"/>
      <point x="338" y="550"/>
      <point x="250" y="550" type="curve" smooth="yes"/>
      <point x="136" y="550"/>
      <point x="63" y="487"/>
      <point x="63" y="396" type="curve" smooth="yes"/>
      <point x="63" y="186"/>
      <point x="380" y="271"/>
    </contour>
  </outline>
</glyph>
<glyph name="t" format="1">
  <advance width="395"/>
  <unicode hex="0074"/>
  <outline>
    <contour>
      <point x="18" y="491" type="line"/>
      <point x="18" y="535" type="line"/>
      <point x="22" y="535" type="line" smooth="yes"/>
      <point x="82" y="535"/>
      <point x="124" y="545"/>
      <point x="124" y="596" type="curve"/>
      <point x="162" y="540" type="line"/>
      <point x="348" y="540" type="line"/>
      <point x="348" y="491" type="line"/>
    </contour>
    <contour>
      <point x="201" y="169" type="line" smooth="yes"/>
      <point x="201" y="77"/>
      <point x="234" y="43"/>
      <point x="291" y="43" type="curve" smooth="yes"/>
      <point x="316" y="43"/>
      <point x="340" y="48"/>
      <point x="360" y="54" type="curve"/>
      <point x="360" y="2" type="line"/>
      <point x="341" y="-5"/>
      <point x="313" y="-11"/>
      <point x="282" y="-11" type="curve" smooth="yes"/>
      <point x="195" y="-11"/>
      <point x="112" y="26"/>
      <point x="112" y="168" type="curve" smooth="yes"/>
      <point x="112" y="528" type="line"/>
      <point x="124" y="535" type="line"/>
      <point x="124" y="677" type="line"/>
      <point x="201" y="677" type="line"/>
    </contour>
  </outline>
</glyph>
<glyph name="J.alt" format="1">
  <advance width="614"/>
  <outline>
    <contour>
      <point x="466" y="633" type="line"/>
      <point x="466" y="662"/>
      <point x="502" y="669"/>
      <point x="550" y="669" type="curve" smooth="yes"/>
      <point x="559" y="669" type="line"/>
      <point x="559" y="710" type="line"/>
      <point x="268" y="710" type="line"/>
      <point x="268" y="669" type="line"/>
      <point x="288" y="669" type="line" smooth="yes"/>
      <point x="336" y="669"/>
      <point x="373" y="662"/>
      <point x="373" y="633" type="curve"/>
    </contour>
    <contour>
      <point x="230" y="43" type="curve"/>
      <point x="168" y="43"/>
      <point x="125" y="67"/>
      <point x="108" y="98" type="curve"/>
      <point x="75" y="145"/>
      <point x="79" y="74"/>
      <point x="128" y="60" type="curve"/>
      <point x="128" y="162" type="line"/>
      <point x="35" y="163" type="line"/>
      <point x="35" y="61" type="line"/>
      <point x="70" y="24"/>
      <point x="144" y="-10"/>
      <point x="230" y="-10" type="curve"/>
      <point x="376" y="-10"/>
      <point x="466" y="58"/>
      <point x="466" y="246" type="curve" smooth="yes"/>
      <point x="466" y="710" type="line"/>
      <point x="373" y="710" type="line"/>
      <point x="373" y="246" type="line" smooth="yes"/>
      <point x="373" y="88"/>
      <point x="324" y="43"/>
    </contour>
  </outline>
</glyph>
<glyph name="Q.alt5" format="1">
  <advance width="802"/>
  <outline>
    <contour>
      <point x="401" y="-10" type="curve" smooth="yes"/>
      <point x="597" y="-10"/>
      <point x="751" y="139"/>
      <point x="751" y="355" type="curve" smooth="yes"/>
      <point x="751" y="572"/>
      <point x="597" y="720"/>
      <point x="401" y="720" type="curve" smooth="yes"/>
      <point x="205" y="720"/>
      <point x="52" y="572"/>
      <point x="52" y="355" type="curve" smooth="yes"/>
      <point x="52" y="139"/>
      <point x="205" y="-10"/>
    </contour>
    <contour>
      <point x="401" y="44" type="curve" smooth="yes"/>
      <point x="255" y="44"/>
      <point x="150" y="164"/>
      <point x="150" y="355" type="curve" smooth="yes"/>
      <point x="150" y="546"/>
      <point x="255" y="666"/>
      <point x="401" y="666" type="curve" smooth="yes"/>
      <point x="547" y="666"/>
      <point x="652" y="546"/>
      <point x="652" y="355" type="curve" smooth="yes"/>
      <point x="652" y="164"/>
      <point x="547" y="44"/>
    </contour>
    <contour>
      <point x="358" y="14" type="line"/>
      <point x="444" y="-100"/>
      <point x="554" y="-156"/>
      <point x="726" y="-188" type="curve"/>
      <point x="755" y="-94" type="line"/>
      <point x="610" y="-84"/>
      <point x="483" y="-60"/>
      <point x="404" y="36" type="curve"/>
    </contour>
  </outline>
</glyph>
<glyph name="S.srf" format="1">
  <advance width="634"/>
  <outline>
    <contour>
      <point x="336" y="44" type="curve" smooth="yes"/>
      <point x="234" y="44"/>
      <point x="146" y="103"/>
      <point x="122" y="220" type="curve"/>
      <point x="46" y="220" type="line"/>
      <point x="46" y="0" type="line"/>
      <point x="102" y="0" type="line"/>
      <point x="114" y="159" type="line"/>
      <point x="112" y="163"/>
      <point x="94" y="154"/>
      <point x="86" y="157" type="curve"/>
      <point x="125" y="39"/>
      <point x="234" y="-10"/>
      <point x="341" y="-10" type="curve" smooth="yes"/>
      <point x="470" y="-10"/>
      <point x="578" y="64"/>
      <point x="578" y="195" type="curve" smooth="yes"/>
      <point x="578" y="335"/>
      <point x="461" y="373"/>
      <point x="348" y="405" type="curve" smooth="yes"/>
      <point x="246" y="434"/>
      <point x="152" y="454"/>
      <point x="152" y="544" type="curve" smooth="yes"/>
      <point x="152" y="618"/>
      <point x="203" y="667"/>
      <point x="298" y="667" type="curve" smooth="yes"/>
      <point x="391" y="667"/>
      <point x="461" y="614"/>
      <point x="476" y="525" type="curve"/>
      <point x="546" y="525" type="line"/>
      <point x="546" y="710" type="line"/>
      <point x="494" y="710" type="line"/>
      <point x="481" y="576" type="line"/>
      <point x="490" y="572"/>
      <point x="506" y="572"/>
      <point x="510" y="578" type="curve"/>
      <point x="469" y="687"/>
      <point x="383" y="720"/>
      <point x="290" y="720" type="curve" smooth="yes"/>
      <point x="165" y="720"/>
      <point x="69" y="645"/>
      <point x="69" y="533" type="curve"/>
      <point x="69" y="395"/>
      <point x="183" y="359"/>
      <point x="292" y="329" type="curve" smooth="yes"/>
      <point x="394" y="300"/>
      <point x="490" y="275"/>
      <point x="490" y="174" type="curve" smooth="yes"/>
      <point x="490" y="83"/>
      <point x="429" y="44"/>
    </contour>
  </outline>
</glyph>
<glyph name="W.alt" format="1">
  <advance width="1059"/>
  <outline>
    <contour>
      <point x="266" y="0" type="line"/>
      <point x="338" y="0" type="line"/>
      <point x="339" y="40" type="line"/>
      <point x="156" y="710" type="line"/>
      <point x="66" y="710" type="line"/>
    </contour>
    <contour>
      <point x="16" y="710" type="line"/>
      <point x="16" y="669" type="line"/>
      <point x="21" y="669" type="line" smooth="yes"/>
      <point x="55" y="669"/>
      <point x="76" y="666"/>
      <point x="87" y="635" type="curve"/>
      <point x="170" y="658" type="line"/>
      <point x="170" y="666"/>
      <point x="216" y="669"/>
      <point x="255" y="669" type="curve" smooth="yes"/>
      <point x="273" y="669" type="line"/>
      <point x="273" y="710" type="line"/>
    </contour>
    <contour>
      <point x="991" y="708" type="line"/>
      <point x="936" y="710" type="line"/>
      <point x="749" y="0" type="line"/>
      <point x="801" y="-2" type="line"/>
    </contour>
    <contour>
      <point x="1043" y="710" type="line"/>
      <point x="819" y="710" type="line"/>
      <point x="819" y="669" type="line"/>
      <point x="838" y="669" type="line" smooth="yes"/>
      <point x="882" y="669"/>
      <point x="920" y="660"/>
      <point x="920" y="649" type="curve"/>
      <point x="966" y="617" type="line"/>
      <point x="978" y="658"/>
      <point x="1002" y="669"/>
      <point x="1038" y="669" type="curve" smooth="yes"/>
      <point x="1043" y="669" type="line"/>
    </contour>
    <contour>
      <point x="503" y="710" type="line"/>
      <point x="310" y="0" type="line"/>
      <point x="363" y="0" type="line"/>
      <point x="540" y="658" type="line"/>
      <point x="520" y="656" type="line"/>
      <point x="705" y="0" type="line"/>
      <point x="777" y="0" type="line"/>
      <point x="778" y="40" type="line"/>
      <point x="588" y="710" type="line"/>
    </contour>
    <contour>
      <point x="695" y="710" type="line"/>
      <point x="398" y="710" type="line"/>
      <point x="398" y="669" type="line"/>
      <point x="416" y="669" type="line" smooth="yes"/>
      <point x="449" y="669"/>
      <point x="490" y="666"/>
      <point x="490" y="658" type="curve"/>
      <point x="603" y="658" type="line"/>
      <point x="603" y="666"/>
      <point x="643" y="669"/>
      <point x="677" y="669" type="curve" smooth="yes"/>
      <point x="695" y="669" type="line"/>
    </contour>
  </outline>
</glyph>
<glyph name="five.alt" format="1">
  <advance width="613"/>
  <outline>
    <contour>
      <point x="176" y="431" type="line"/>
      <point x="194" y="669" type="line"/>
      <point x="171" y="648" type="line"/>
      <point x="530" y="648" type="line"/>
      <point x="530" y="720" type="line"/>
      <point x="141" y="720" type="line"/>
      <point x="119" y="439" type="line"/>
      <point x="119" y="404" type="line"/>
      <point x="216" y="392" type="line" smooth="yes"/>
      <point x="376" y="372"/>
      <point x="470" y="324"/>
      <point x="470" y="207" type="curve" smooth="yes"/>
      <point x="470" y="92"/>
      <point x="402" y="45"/>
      <point x="316" y="45" type="curve" smooth="yes"/>
      <point x="225" y="45"/>
      <point x="160" y="90"/>
      <point x="144" y="205" type="curve"/>
      <point x="48" y="205" type="line"/>
      <point x="64" y="61"/>
      <point x="172" y="-10"/>
      <point x="316" y="-10" type="curve" smooth="yes"/>
      <point x="455" y="-10"/>
      <point x="566" y="64"/>
      <point x="566" y="207" type="curve" smooth="yes"/>
      <point x="566" y="344"/>
      <point x="453" y="415"/>
      <point x="254" y="442" type="curve" smooth="yes"/>
      <point x="146" y="456" type="line"/>
    </contour>
  </outline>
</glyph>
<glyph name="five.oldalt" format="1">
  <advance width="610"/>
  <outline>
    <contour>
      <point x="182" y="239" type="line"/>
      <point x="199" y="477" type="line"/>
      <point x="177" y="456" type="line"/>
      <point x="525" y="456" type="line"/>
      <point x="525" y="528" type="line"/>
      <point x="146" y="528" type="line"/>
      <point x="124" y="247" type="line"/>
      <point x="124" y="212" type="line"/>
      <point x="216" y="200" type="line" smooth="yes"/>
      <point x="372" y="178"/>
      <point x="465" y="132"/>
      <point x="465" y="15" type="curve" smooth="yes"/>
      <point x="465" y="-100"/>
      <point x="399" y="-148"/>
      <point x="316" y="-148" type="curve" smooth="yes"/>
      <point x="228" y="-148"/>
      <point x="166" y="-102"/>
      <point x="150" y="13" type="curve"/>
      <point x="54" y="13" type="line"/>
      <point x="70" y="-131"/>
      <point x="176" y="-202"/>
      <point x="316" y="-202" type="curve" smooth="yes"/>
      <point x="452" y="-202"/>
      <point x="560" y="-128"/>
      <point x="560" y="15" type="curve" smooth="yes"/>
      <point x="560" y="152"/>
      <point x="449" y="222"/>
      <point x="254" y="250" type="curve" smooth="yes"/>
      <point x="152" y="264" type="line"/>
    </contour>
  </outline>
</glyph>
<glyph name="five.oldalt2" format="1">
  <advance width="614"/>
  <outline>
    <contour>
      <point x="101" y="528" type="line"/>
      <point x="512" y="528" type="line"/>
      <point x="512" y="358" type="line"/>
      <point x="458" y="358" type="line"/>
      <point x="458" y="456" type="line"/>
      <point x="458" y="456" type="line"/>
      <point x="144" y="456" type="line"/>
      <point x="160" y="477" type="line"/>
      <point x="160" y="227" type="line"/>
      <point x="101" y="227" type="line"/>
    </contour>
    <contour>
      <point x="258" y="247" type="line" smooth="yes"/>
      <point x="468" y="247"/>
      <point x="562" y="164"/>
      <point x="562" y="31" type="curve" smooth="yes"/>
      <point x="562" y="-118"/>
      <point x="445" y="-192"/>
      <point x="310" y="-192" type="curve" smooth="yes"/>
      <point x="166" y="-192"/>
      <point x="62" y="-121"/>
      <point x="45" y="23" type="curve"/>
      <point x="141" y="23" type="line"/>
      <point x="159" y="-90"/>
      <point x="219" y="-137"/>
      <point x="310" y="-137" type="curve" smooth="yes"/>
      <point x="396" y="-137"/>
      <point x="468" y="-90"/>
      <point x="468" y="31" type="curve" smooth="yes"/>
      <point x="468" y="152"/>
      <point x="392" y="194"/>
      <point x="240" y="194" type="curve" smooth="yes"/>
      <point x="101" y="194" type="line"/>
      <point x="101" y="247" type="line"/>
    </contour>
  </outline>
</glyph>
<glyph name="four.alt" format="1">
  <advance width="604"/>
  <outline>
    <contour>
      <point x="244" y="51" type="line"/>
      <point x="244" y="0" type="line"/>
      <point x="575" y="0" type="line"/>
      <point x="575" y="51" type="line"/>
      <point x="456" y="51" type="line"/>
      <point x="456" y="51" type="line"/>
      <point x="364" y="51" type="line"/>
      <point x="364" y="51" type="line"/>
    </contour>
    <contour>
      <point x="364" y="513" type="line"/>
      <point x="364" y="0" type="line"/>
      <point x="456" y="0" type="line"/>
      <point x="456" y="513" type="line"/>
    </contour>
    <contour>
      <point x="34" y="187" type="line"/>
      <point x="585" y="187" type="line"/>
      <point x="585" y="238" type="line"/>
      <point x="68" y="238" type="line"/>
      <point x="69" y="203" type="line"/>
      <point x="462" y="710" type="line"/>
      <point x="361" y="710" type="line"/>
      <point x="34" y="243" type="line"/>
    </contour>
  </outline>
</glyph>
<glyph name="four.old" format="1">
  <advance width="608"/>
  <outline>
    <contour>
      <point x="249" y="-131" type="line"/>
      <point x="249" y="-182" type="line"/>
      <point x="579" y="-182" type="line"/>
      <point x="579" y="-131" type="line"/>
      <point x="460" y="-131" type="line"/>
      <point x="460" y="-131" type="line"/>
      <point x="368" y="-131" type="line"/>
      <point x="368" y="-131" type="line"/>
    </contour>
    <contour>
      <point x="368" y="528" type="line"/>
      <point x="368" y="-182" type="line"/>
      <point x="460" y="-182" type="line"/>
      <point x="460" y="528" type="line"/>
    </contour>
    <contour>
      <point x="29" y="1" type="line"/>
      <point x="589" y="1" type="line"/>
      <point x="589" y="52" type="line"/>
      <point x="58" y="52" type="line"/>
      <point x="63" y="17" type="line"/>
      <point x="400" y="489" type="line"/>
      <point x="426" y="528" type="line"/>
      <point x="365" y="528" type="line"/>
      <point x="29" y="54" type="line"/>
    </contour>
  </outline>
</glyph>
<glyph name="j.alt" format="1">
  <advance width="334"/>
  <outline>
    <contour>
      <point x="171" y="649" type="curve" smooth="yes"/>
      <point x="206" y="649"/>
      <point x="232" y="672"/>
      <point x="232" y="710" type="curve" smooth="yes"/>
      <point x="232" y="747"/>
      <point x="206" y="770"/>
      <point x="171" y="770" type="curve" smooth="yes"/>
      <point x="136" y="770"/>
      <point x="110" y="747"/>
      <point x="110" y="710" type="curve" smooth="yes"/>
      <point x="110" y="672"/>
      <point x="136" y="649"/>
    </contour>
    <contour>
      <point x="220" y="540" type="line"/>
      <point x="37" y="540" type="line"/>
      <point x="37" y="497" type="line"/>
      <point x="52" y="495" type="line" smooth="yes"/>
      <point x="105" y="488"/>
      <point x="130" y="479"/>
      <point x="130" y="450" type="curve" smooth="yes"/>
      <point x="130" y="-38" type="line" smooth="yes"/>
      <point x="130" y="-140"/>
      <point x="98" y="-178"/>
      <point x="28" y="-178" type="curve" smooth="yes"/>
      <point x="-16" y="-178"/>
      <point x="-52" y="-162"/>
      <point x="-70" y="-127" type="curve"/>
      <point x="-88" y="-143"/>
      <point x="-68" y="-171"/>
      <point x="-40" y="-170" type="curve"/>
      <point x="-40" y="-89" type="line"/>
      <point x="-120" y="-89" type="line"/>
      <point x="-120" y="-173" type="line"/>
      <point x="-98" y="-202"/>
      <point x="-44" y="-231"/>
      <point x="28" y="-231" type="curve" smooth="yes"/>
      <point x="140" y="-231"/>
      <point x="220" y="-164"/>
      <point x="220" y="-38" type="curve" smooth="yes"/>
    </contour>
  </outline>
</glyph>
<glyph name="one.oldalt" format="1">
  <advance width="430"/>
  <outline>
    <contour>
      <point x="194" y="516" type="line"/>
      <point x="194" y="0" type="line"/>
      <point x="287" y="0" type="line"/>
      <point x="287" y="528" type="line"/>
      <point x="203" y="528" type="line"/>
      <point x="58" y="493" type="line"/>
      <point x="58" y="440" type="line"/>
      <point x="261" y="481" type="line"/>
    </contour>
  </outline>
</glyph>
<glyph name="s.srf" format="1">
  <advance width="513"/>
  <outline>
    <contour>
      <point x="284" y="-10" type="curve"/>
      <point x="394" y="-10"/>
      <point x="472" y="50"/>
      <point x="472" y="149" type="curve" smooth="yes"/>
      <point x="472" y="262"/>
      <point x="383" y="289"/>
      <point x="296" y="311" type="curve" smooth="yes"/>
      <point x="216" y="330"/>
      <point x="143" y="339"/>
      <point x="143" y="411" type="curve" smooth="yes"/>
      <point x="143" y="462"/>
      <point x="175" y="498"/>
      <point x="242" y="498" type="curve" smooth="yes"/>
      <point x="306" y="498"/>
      <point x="353" y="460"/>
      <point x="376" y="392" type="curve"/>
      <point x="445" y="392" type="line"/>
      <point x="445" y="545" type="line"/>
      <point x="396" y="545" type="line"/>
      <point x="383" y="456" type="line"/>
      <point x="387" y="448"/>
      <point x="404" y="426"/>
      <point x="411" y="422" type="curve"/>
      <point x="396" y="493"/>
      <point x="330" y="552"/>
      <point x="237" y="552" type="curve" smooth="yes"/>
      <point x="136" y="552"/>
      <point x="65" y="489"/>
      <point x="65" y="400" type="curve" smooth="yes"/>
      <point x="65" y="289"/>
      <point x="156" y="261"/>
      <point x="242" y="241" type="curve" smooth="yes"/>
      <point x="320" y="221"/>
      <point x="390" y="205"/>
      <point x="390" y="136" type="curve" smooth="yes"/>
      <point x="390" y="75"/>
      <point x="343" y="44"/>
      <point x="280" y="44" type="curve" smooth="yes"/>
      <point x="194" y="44"/>
      <point x="135" y="91"/>
      <point x="111" y="175" type="curve"/>
      <point x="40" y="175" type="line"/>
      <point x="40" y="0" type="line"/>
      <point x="92" y="0" type="line"/>
      <point x="102" y="124" type="line"/>
      <point x="99" y="130"/>
      <point x="80" y="142"/>
      <point x="72" y="141" type="curve"/>
      <point x="106" y="28"/>
      <point x="198" y="-10"/>
    </contour>
  </outline>
</glyph>
<glyph name="seven.alt2" format="1">
  <advance width="566"/>
  <outline>
    <contour>
      <point x="214" y="0" type="line"/>
      <point x="208" y="376"/>
      <point x="466" y="417"/>
      <point x="466" y="636" type="curve" smooth="yes"/>
      <point x="466" y="677" type="line"/>
      <point x="489" y="636" type="line"/>
      <point x="122" y="636" type="line"/>
      <point x="122" y="636" type="line"/>
      <point x="122" y="504" type="line"/>
      <point x="65" y="504" type="line"/>
      <point x="65" y="710" type="line"/>
      <point x="527" y="710" type="line"/>
      <point x="527" y="658" type="line" smooth="yes"/>
      <point x="527" y="392"/>
      <point x="302" y="382"/>
      <point x="312" y="0" type="curve"/>
    </contour>
  </outline>
</glyph>
